# xmcd
#
# Track frame offsets: 
#        150
#        15884
#        29594
#        46390
#        63837
#        84007
#        103634
#        120729
#        138435
#        152835
#        171097
#
# Disc length: 2606 seconds
#
# Revision: 0
# Processed by: cddbd v1.5.2PL0 Copyright (c) Steve Scherf et al.
# Submitted via: ExactAudioCopy v1.0b4
#
DISCID=7f0a2c0b
DTITLE=Frankie Ballard - El Rio
DYEAR=2016
DGENRE=Country
TTITLE0=El Camino
TTITLE1=Cigarette
TTITLE2=Wasting Time
TTITLE3=Little Bit Of Both
TTITLE4=L.A. Woman
TTITLE5=It All Started With a Beer
TTITLE6=Sweet Time
TTITLE7=Good As Gold
TTITLE8=Southern Side
TTITLE9=You'll Accomp'ny Me
TTITLE10=You Could've Loved Me
EXTD=
EXTT0=
EXTT1=
EXTT2=
EXTT3=
EXTT4=
EXTT5=
EXTT6=
EXTT7=
EXTT8=
EXTT9=
EXTT10=
PLAYORDER=
